<svg xmlns="http://www.w3.org/2000/svg" viewBox="0 0 74 64" width="74" height="64" role="img" aria-hidden="true">
  <defs>
    <linearGradient id="hx" x1="0" y1="0" x2="0" y2="1"><stop offset="0" stop-color="#1b272c"/><stop offset="1" stop-color="#10191d"/></linearGradient>
    <linearGradient id="or" x1="0" y1="0" x2="0" y2="1"><stop offset="0" stop-color="#f9773a"/><stop offset=".45" stop-color="#ee6124"/><stop offset="1" stop-color="#c8400b"/></linearGradient>
  </defs>
  <polygon points="19,2 55,2 73,32 55,62 19,62 1,32" fill="url(#hx)" stroke="#162124" stroke-width="2" stroke-linejoin="round"/>
  <circle cx="37" cy="32" r="17.6" fill="#ffffff"/>
  <circle cx="37" cy="32" r="14.6" fill="url(#or)"/>
  <ellipse cx="37" cy="23" rx="9" ry="3.6" fill="#ffffff" opacity=".13"/>
  <g transform="translate(27.4 22.4) scale(.8)" fill="none" stroke="#15110d" stroke-width="2.9" stroke-linecap="round" stroke-linejoin="round">
    <path d="M14.7 6.3a1 1 0 0 0 0 1.4l1.6 1.6a1 1 0 0 0 1.4 0l3.77-3.77a6 6 0 0 1-7.94 7.94l-6.91 6.91a2.12 2.12 0 0 1-3-3l6.91-6.91a6 6 0 0 1 7.94-7.94l-3.76 3.76z"/>
  </g>
</svg>
